# xmcd
#
# Track frame offsets:
# 182
# 11497
# 23659
# 35166
# 46356
# 59083
# 70173
# 81154
# 93622
# 105845
# 118017
# 130465
# 143295
# 156240
# 168876
# 181679
# 194957
# 207760
# 221358
# 233294
#
# Disc length: 3280 seconds
#
# Revision: 0
# Processed by: cddbd v1.4PL0 Copyright (c) Steve Scherf et al.
# Submitted via: Axialis_AX_CDPlayer 2.6
#
DISCID=0d0cce14
DTITLE=Gatemouth Brown - Gatemouth Brown 1947-1951
DYEAR=1900
DGENRE=
TTITLE0=Gatemouth Boogie
TTITLE1=Guitar In My Hand
TTITLE2=After Sunset
TTITLE3=Without Me Baby
TTITLE4=Didn't Reach My Goal
TTITLE5=Atomic Energy
TTITLE6=Mercy On Me
TTITLE7=My Time's Expensive
TTITLE8=Mary Is Fine
TTITLE9=I Live My Life
TTITLE10=2 O'Clock In the Morning
TTITLE11=Boogie Rambler
TTITLE12=I've Been Mistreated
TTITLE13=It Can Never Be That Way
TTITLE14=Justice Blues
TTITLE15=Just Got Lucky
TTITLE16=She Walk Right In
TTITLE17=Win With Me Baby
TTITLE18=Too Late Baby
TTITLE19=Taking My Chances
EXTD=Blues and Rhythm Series: Classics 5030
EXTT0=
EXTT1=
EXTT2=
EXTT3=
EXTT4=
EXTT5=
EXTT6=
EXTT7=
EXTT8=
EXTT9=
EXTT10=
EXTT11=
EXTT12=
EXTT13=
EXTT14=
EXTT15=
EXTT16=
EXTT17=
EXTT18=
EXTT19=
PLAYORDER=
